# xmcd CD database file
#
# Track frame offsets:
#	150
#	21877
#	51797
#	97714
#	138251
#	170340
#	232518
#	279854
#
# Disc length: 4204 seconds
#
# Revision: 0
# Processed by: cddbd v1.5.1PL0 Copyright (c) Steve Scherf et al.
# Submitted via: CDex 1.51
#
DISCID=51106a08
DTITLE=Kitaro - World Of Kita[Vol10][Heart Beat]
DYEAR=2000
DGENRE=New Age
TTITLE0=Hajimari
TTITLE1=Sozo
TTITLE2=Mercury
TTITLE3=Chant From The Heart
TTITLE4=Spirit Of Taiko
TTITLE5=Kokoro
TTITLE6=The Light Of The Spirit
TTITLE7=Silk Road
EXTD=YEAR: 2000
EXTT0=
EXTT1=
EXTT2=
EXTT3=
EXTT4=
EXTT5=
EXTT6=
EXTT7=
PLAYORDER=
